PathFileType	4	(X/Y/Z)	C:\Users\WrightLab\Desktop\Jo\P2_Trial37.trc
DataRate	CameraRate	NumFrames	NumMarkers	Units	OrigDataRate	OrigDataStartFrame	OrigNumFrames
100.00	100.00	       21	19	mm	100.00	352	       563
Frame#	Time	Headset_Front			Headset_Back			Headset_Left			Headset_Right			Left_Shoulder			Right_Shoulder			Sternum			C7			Left Elbow			Right Elbow			Left Wrist			Right Wrist			Left ASIS			Right ASIS			S2			Left Knee			Right Knee			Left Ankle			Right Ankle			
		X1	Y1	Z1	X2	Y2	Z2	X3	Y3	Z3	X4	Y4	Z4	X5	Y5	Z5	X6	Y6	Z6	X7	Y7	Z7	X8	Y8	Z8	X9	Y9	Z9	X10	Y10	Z10	X11	Y11	Z11	X12	Y12	Z12	X13	Y13	Z13	X14	Y14	Z14	X15	Y15	Z15	X16	Y16	Z16	X17	Y17	Z17	X18	Y18	Z18	X19	Y19	Z19	

352	3.510	79.16546	1529.98181	1041.25159	27.84271	1718.57178	800.79706				-41.65630	1591.70850	976.93073	164.80887	1475.96289	735.94788	-107.07373	1448.20789	924.57660	77.22627	1353.50012	887.50604	-45.69785	1444.98877	746.32202	294.38684	1142.93103	643.51221	-162.82605	1117.61230	994.53833	347.64499	902.94586	624.32025	-98.38020	895.69421	1107.38586	171.81847	1064.93909	895.89655	57.06608	1030.77808	960.61792	18.81649	964.38086	688.17169	390.00839	549.59790	902.04785	-61.76027	537.08881	871.84314	428.01929	215.67029	777.27032	103.10589	134.83710	808.21814	
353	3.520	82.17508	1528.85669	1050.21521	31.53967	1717.54114	809.15057				-38.71645	1590.77515	985.53430	169.40967	1474.41882	747.41077	-104.26117	1446.16602	932.30225	80.60441	1351.37036	896.89819	-40.54469	1443.20203	754.28162	300.06586	1141.70984	653.15674	-157.13223	1116.35400	1003.04395	352.72913	903.19525	632.75623	-90.83740	895.61603	1117.18762	175.09732	1063.85132	905.79456	59.82155	1028.61548	967.89545	27.16924	963.63324	694.43542	391.92032	546.19000	913.79449	-64.94618	535.54126	869.62531	441.98505	205.17940	800.81354	97.83353	131.04176	812.95526	
354	3.530	85.09022	1527.29980	1059.30176	35.56926	1716.19543	818.03949				-35.97230	1589.99731	993.58923	174.30699	1473.52039	757.34100	-101.48756	1444.33093	940.05072	84.21793	1350.30798	907.78314	-35.60361	1441.21106	762.73737	305.49860	1140.71924	663.99548	-151.43304	1114.64539	1011.12061	357.92078	902.56934	641.13306	-83.93407	895.19531	1126.78674	178.83801	1061.90149	916.30170	62.58195	1026.56311	975.99011	34.57035	962.41113	701.83441	393.22433	542.30377	923.17432	-66.79903	533.74786	866.57709	454.83740	195.80768	826.25702	91.60205	127.39837	820.44965	
355	3.540	87.84960	1526.07800	1068.33118	40.21200	1714.92627	826.93060				-33.40287	1588.38135	1002.41772	178.89162	1472.49292	767.63904	-98.18891	1441.56885	948.09961	87.96758	1348.06506	917.12720	-30.71050	1439.39185	771.53674	310.39191	1139.58057	673.76337	-145.50749	1112.39697	1018.87543	419.98282	813.13507	707.07001	-77.51984	894.92407	1136.44287	182.92097	1060.65332	925.67737	66.07224	1025.16321	985.24884	42.19242	961.94269	709.21997	393.76779	535.92407	929.83099	-68.10471	532.75439	864.49298	466.62268	187.76773	853.58905	86.03730	125.23936	822.75006	
356	3.550	91.48830	1524.40173	1077.36121	45.96593	1711.67651	836.29230				-29.68044	1587.28357	1010.69147	183.59546	1470.59229	778.90161	-95.54739	1439.54236	956.35638	90.76725	1346.52380	926.31580	-25.71449	1437.38123	780.39819	315.94550	1138.53430	684.20148	-140.29768	1109.97461	1026.46558	366.80856	899.33405	654.43524	-71.18597	893.59570	1145.52991	187.14728	1057.95825	934.84259	69.08353	1022.76532	993.01703	49.58443	960.46820	716.54462	393.27414	529.78192	935.20850	-67.58288	532.18573	860.54559	476.79584	181.01959	883.02966	80.45796	121.17500	826.38019	
357	3.560	93.24543	1523.68030	1086.82129	47.10207	1711.30518	844.23065				-27.36658	1585.64636	1019.70850	188.35681	1469.56653	788.76807	-91.94963	1437.12036	964.89996	95.27068	1345.03540	936.58551	-21.19150	1435.05566	789.61810	320.99908	1137.66028	694.78601	-133.30756	1106.07642	1033.91248	371.81580	898.76801	662.40808	-64.09648	891.97473	1155.02734	191.76022	1056.97375	945.35797	72.96829	1020.08643	1000.72339	56.59164	959.58685	724.39813	392.89935	523.59253	939.81757	-66.32529	531.94025	857.28711	486.56686	176.05815	914.10583	75.47802	117.82207	831.31812	
358	3.570	96.99975	1522.25427	1094.96936	50.05294	1709.34753	852.64716				-24.31671	1584.41089	1028.52283	192.54028	1468.00037	799.33435	-88.91169	1434.63855	973.55798	99.56142	1342.96875	946.06476	-16.64652	1432.74902	798.73352	325.66013	1136.03540	706.18585	-127.68182	1102.96606	1041.45593	376.01074	898.82672	672.21594	-57.94193	890.15833	1164.14197	196.25928	1054.51685	954.08539	78.05358	1018.34021	1011.08807	63.12513	958.11072	732.85059	391.75403	516.98492	944.27161	-64.32273	532.17517	855.19971	494.45139	173.86710	945.66290	69.11617	114.49756	835.81976	
359	3.580	99.45062	1521.74829	1104.46057	53.14304	1707.36426	861.27374				-21.51849	1582.46387	1036.79468	197.37746	1466.95349	810.19226	-85.13322	1432.08386	982.26605	102.32442	1341.44666	955.16016	-12.13479	1430.39563	807.65588	330.45743	1134.77930	716.68390	-121.81618	1099.85547	1048.50378	380.30719	897.70190	680.43787	-51.56905	888.37518	1172.51355	201.59935	1052.59900	963.22357	83.36130	1016.36499	1019.70154	69.57688	956.35767	741.46295	389.17590	510.16183	948.12592	-61.76422	533.10260	854.15436	500.73978	172.13042	978.49597	60.76604	113.23493	840.62054	
360	3.590	101.93703	1521.30823	1114.00269	57.07643	1705.04187	869.44824				-19.57577	1581.28894	1045.80640	201.78438	1465.67847	819.78424	-81.01713	1429.03748	990.78076	107.20619	1339.61536	966.08685	-7.47543	1428.24292	816.66589	335.37137	1133.31311	727.94891	-116.32300	1096.77576	1056.13916	386.47690	897.10553	690.29071	-46.29655	885.82520	1181.07825	206.98848	1050.81189	972.92944	88.23244	1014.12128	1028.37854	75.58979	954.54742	750.82758	383.91483	502.96338	953.24280	-57.18829	532.40900	854.45142	505.27036	175.01442	1010.65735	53.08076	111.54485	844.59882	
361	3.600	103.57145	1521.17981	1124.40417	59.63175	1703.14331	877.82837				-16.70145	1579.75195	1054.32800	206.39049	1464.10425	831.20917	-77.25186	1426.55078	999.44012	112.43593	1338.00598	974.92981	-3.04116	1426.09912	826.01508	340.09402	1131.86633	738.30457	-112.23484	1094.00281	1064.32434	389.25970	894.99445	699.85809	-41.16571	883.57751	1189.92114	213.56584	1049.15149	982.16895	93.86971	1011.97943	1037.58362	81.40781	953.00262	760.18060	377.37637	498.07108	960.78406	-51.79247	531.57019	856.17627	507.40604	180.44923	1040.39514	45.44751	109.85547	848.01184	
362	3.610	105.83293	1520.87366	1134.03552	62.55518	1700.74536	886.34375				-14.44629	1578.06152	1062.84900	211.39899	1463.49695	841.34283	-73.54120	1423.98230	1008.27576	116.22068	1336.41675	985.19086	1.83061	1424.17029	834.94672	344.52911	1130.67004	749.69745	-107.56122	1091.51099	1072.59741	392.47021	892.79773	708.56158	-36.38189	880.84729	1198.33044	220.11214	1047.03210	991.69330	101.05901	1010.23730	1048.10425	86.83582	951.49640	770.15546	369.64011	495.30066	968.79474	-46.55589	531.19946	859.39447	509.11877	190.40399	1069.26721	37.46062	108.23027	852.05688	
363	3.620	107.95534	1520.48486	1144.04041	65.63045	1698.74304	894.84131				-12.07179	1577.07104	1071.58191	216.52010	1462.44421	850.89758	-69.39246	1421.78271	1017.43768	121.13786	1334.82947	995.90277	6.46763	1422.41553	844.11615	349.45422	1129.23352	760.94946	-103.10862	1088.91113	1080.91382	396.65314	892.09399	717.80933	-31.77487	877.88800	1206.57483	225.43314	1044.79944	1002.10083	106.29840	1008.01422	1057.28857	92.44714	949.75580	780.70801	362.33728	492.52908	976.16815	-41.22112	531.25861	864.00647	509.04456	200.77376	1096.28491	28.95031	107.63260	856.82965	
364	3.630	109.52955	1520.53955	1153.78455	68.84694	1697.05286	903.54584				-10.04334	1575.61584	1079.87622	221.13145	1461.07532	861.57916	-65.11627	1419.06396	1026.11780	125.52017	1333.49805	1004.85455	11.78652	1420.57874	852.85559	354.07748	1127.98840	771.57861	-98.29821	1086.43311	1089.39221	401.84509	891.48822	730.03680	-27.28604	874.72943	1214.66455	232.76360	1043.23877	1012.69635	113.21404	1007.00647	1068.12329	97.98837	948.18842	791.81274	354.01508	489.13727	986.08459	-35.61232	531.38519	869.86530	506.98807	209.39804	1121.48767	22.34943	103.27404	858.30505	
365	3.640	111.47108	1520.12329	1163.39990	72.42879	1695.22217	912.00665				-8.16490	1574.83008	1088.44409	226.56902	1460.64392	872.50397	-60.96003	1416.09363	1034.47070	130.04120	1332.56995	1015.44904	16.80091	1418.89063	862.14893	358.78580	1126.75366	782.04022	-94.63046	1084.36169	1098.12402	407.56259	890.96930	741.49969	-22.99901	871.82813	1222.41626	238.90349	1042.88416	1024.27783	118.83960	1005.70667	1079.23718	102.99844	946.68756	802.74854	347.34711	487.67880	997.19879	-30.34163	531.15662	876.72363	502.56796	214.98816	1145.28284	16.70682	104.66214	860.94794	
366	3.650	112.81200	1519.43555	1173.37659	74.39535	1694.18945	920.77734				-6.25075	1573.19824	1096.73816	231.62686	1460.03406	883.50037	-56.65247	1413.88928	1042.58936	134.33197	1331.30884	1025.36353	22.04994	1417.29199	871.17975	363.85495	1125.84387	793.74634	-90.42339	1082.40222	1106.11243	410.70862	889.28656	751.23053	-19.43548	869.60492	1229.97815	244.15344	1041.86816	1035.84558	124.18417	1004.80933	1089.44775	108.41680	945.32605	814.46600	340.27716	485.82651	1008.57471	-24.83908	530.72504	884.58411	497.73016	223.67419	1168.61279	12.08256	105.70604	862.79242	
367	3.660	114.24481	1518.96228	1182.55591	79.06865	1692.72168	929.30933				-5.09612	1572.40735	1105.12354	237.12842	1459.55603	894.31238	-51.62527	1412.32031	1050.94739	139.33852	1330.44861	1035.17407	27.83144	1415.82007	879.70288	368.70035	1124.94128	804.70294	-86.34495	1080.60742	1114.02271	415.51422	888.35236	763.56934	-17.22087	867.13837	1237.29956	248.82950	1041.01294	1047.34106	129.27867	1004.17053	1100.88916	114.46924	943.77673	825.61060	335.98532	485.02234	1021.63708	-19.14136	530.00708	893.71057	493.42529	232.97386	1193.43237	7.45857	104.73549	863.19122	
368	3.670	115.16175	1518.74170	1192.40588	83.13412	1691.86401	938.58966				-2.50998	1570.44495	1112.24231	242.31416	1458.70886	903.64606	-48.87766	1411.08044	1056.45300	143.66670	1330.11548	1045.94604	33.54068	1414.74548	888.26935	374.16586	1124.53271	816.07050	-82.56537	1079.28955	1121.61938	420.47476	887.21936	775.95856	-13.54947	864.48749	1243.76807	254.14804	1040.87988	1060.52332	134.45020	1004.05005	1113.02039	120.05235	943.24939	837.78021	335.57245	485.86606	1035.89832	-13.17895	529.27277	903.14856	488.20657	240.99622	1215.46802	3.67312	105.50078	863.60651	
369	3.680	116.32838	1518.58911	1201.60229	85.64186	1692.12073	947.50854				-0.42763	1569.54688	1119.93372	248.00276	1458.66724	914.98749	-45.35364	1410.33716	1064.02429	148.69339	1330.28406	1056.52722	39.12509	1414.00781	897.06244	379.24722	1123.94165	827.43475	-78.60476	1077.98181	1128.34241	425.02109	886.15936	788.04749	-10.87916	862.03540	1250.20398	257.94894	1040.70789	1072.34583	138.52919	1004.36578	1123.74829	126.41075	942.58234	849.64624	335.37119	486.24179	1049.40967	-7.14832	528.46558	913.94971	482.49533	249.15327	1237.10620	0.30381	106.76019	863.14130	
370	3.690	117.41682	1518.40332	1210.72266	89.98741	1693.16772	957.56952				1.52251	1569.25232	1128.12402	253.12715	1458.54822	925.87231	-41.94207	1410.51208	1071.37988	152.55504	1331.26160	1066.47375	44.73591	1413.73535	905.88867	384.73685	1123.99011	838.95990	-74.55814	1077.49402	1134.87866	431.74796	885.88257	802.35358	-8.70549	859.65234	1255.53711	261.94061	1040.88513	1086.54016	140.36017	1004.93652	1134.85327	133.83653	942.56689	861.29688	334.56067	485.56879	1065.75195	-0.99232	527.95245	925.31952	477.03113	255.95200	1257.36719	-2.83495	108.49252	862.32324	
371	3.700	118.26527	1518.34119	1220.78882	94.43727	1694.07605	967.52264				3.42477	1569.55750	1136.05200	258.47269	1459.44495	937.32104	-39.32178	1410.47546	1078.74365	155.83377	1331.54187	1076.41699	50.32830	1414.27454	915.10248	390.12585	1123.92822	850.77808	-70.66646	1076.94763	1140.92346	435.09882	884.86902	813.54510	-7.17993	858.01849	1260.84973	265.04678	1041.23950	1099.43030	142.43051	1005.16266	1145.20032	140.49025	942.69305	872.75696	336.97787	487.53922	1080.93884	4.88726	526.98676	937.62646	469.72684	261.63715	1277.20105	-3.86907	111.97904	861.77893	
372	3.710	118.99496	1518.83215	1229.98523	98.14142	1695.23328	977.62317				5.40761	1569.85742	1144.17493	263.40643	1459.43701	947.92389	-36.09015	1411.60034	1086.74756	160.01855	1332.84827	1086.82837	55.75322	1414.93005	924.18689	395.58182	1123.83594	863.75458	-66.62611	1077.32544	1146.43933	440.34076	885.61310	828.99103	-5.88471	857.13226	1265.04944	268.23834	1042.03125	1112.87744	145.13538	1007.27771	1156.61560	147.84618	943.03796	883.44220	339.62933	489.36200	1096.58191	10.74721	526.76233	949.62781	463.54013	266.95364	1296.01172	-3.47111	114.10089	859.34119	
